<svg id="Grupo_2" data-name="Grupo 2" xmlns="http://www.w3.org/2000/svg" xmlns:xlink="http://www.w3.org/1999/xlink" width="209.889" height="67.453" viewBox="0 0 209.889 67.453">
  <defs>
    <clipPath id="clip-path">
      <rect id="Rectángulo_1" data-name="Rectángulo 1" width="209.889" height="67.453" fill="none"/>
    </clipPath>
  </defs>
  <g id="Grupo_1" data-name="Grupo 1" clip-path="url(#clip-path)">
    <path id="Trazado_1" data-name="Trazado 1" d="M361.453,0a33.727,33.727,0,1,0,33.726,33.726A33.727,33.727,0,0,0,361.453,0M379.4,36.539H343.5A3.536,3.536,0,0,1,339.966,33a21.487,21.487,0,1,1,42.974,0,3.536,3.536,0,0,1-3.536,3.536" transform="translate(-185.29)" fill="#040504"/>
    <path id="Trazado_2" data-name="Trazado 2" d="M10.777,55.08q7.242,0,11.65,4.036A13.671,13.671,0,0,1,26.832,69.7a13.672,13.672,0,0,1-4.406,10.58q-4.406,4.036-11.65,4.036H0V55.08Zm0,23.865a10.449,10.449,0,0,0,7.33-2.509A8.678,8.678,0,0,0,20.856,69.7a8.679,8.679,0,0,0-2.749-6.741,10.451,10.451,0,0,0-7.33-2.509H5.934v18.5Z" transform="translate(0 -31.141)" fill="#040504"/>
    <path id="Trazado_3" data-name="Trazado 3" d="M96.1,58.024a15.353,15.353,0,0,1,0,21.663,15.7,15.7,0,0,1-21.858,0,15.352,15.352,0,0,1,0-21.663,15.646,15.646,0,0,1,21.858,0M91.865,75.782a9.388,9.388,0,0,0,2.727-6.893,9.536,9.536,0,0,0-2.727-6.937,9.427,9.427,0,0,0-13.395,0,9.536,9.536,0,0,0-2.726,6.937,9.387,9.387,0,0,0,2.726,6.893,9.533,9.533,0,0,0,13.395,0" transform="translate(-39.444 -30.29)" fill="#040504"/>
    <path id="Trazado_4" data-name="Trazado 4" d="M184.228,84.312H178.47V68.387l-8.726,15.925h-3.534l-8.77-15.925V84.312H151.68V55.08h5.192l11.081,20.2,11.126-20.2h5.148Z" transform="translate(-85.757 -31.141)" fill="#040504"/>
    <path id="Trazado_5" data-name="Trazado 5" d="M263.939,58.024a15.354,15.354,0,0,1,0,21.663,15.7,15.7,0,0,1-21.858,0,15.352,15.352,0,0,1,0-21.663,15.646,15.646,0,0,1,21.858,0m-4.232,17.758a9.387,9.387,0,0,0,2.726-6.893,9.536,9.536,0,0,0-2.726-6.937,9.427,9.427,0,0,0-13.395,0,9.536,9.536,0,0,0-2.727,6.937,9.388,9.388,0,0,0,2.727,6.893,9.533,9.533,0,0,0,13.395,0" transform="translate(-134.339 -30.29)" fill="#040504"/>
  </g>
</svg>
